<svg width="24" height="24" viewBox="0 0 24 24" xmlns='http://www.w3.org/2000/svg' fill="#FBFCFF" ><g ><path id="Subtract" fill-rule="evenodd" clip-rule="evenodd" d="M4.80619 21.5096C5.23595 21.6772 5.88207 21.8752 7.07148 21.9293C8.35718 21.9887 8.74354 22 11.9997 22C15.2571 22 15.6434 21.9881 16.9291 21.9293C18.1185 21.8752 18.7646 21.6772 19.1944 21.5096C19.7638 21.2879 20.1704 21.024 20.5972 20.5972C21.024 20.1704 21.2879 19.7644 21.5096 19.195C21.676 18.7652 21.8752 18.1191 21.9293 16.9297C21.9881 15.6428 22 15.2565 22 12.0003C22 8.74295 21.9881 8.35777 21.9293 7.07088C21.8752 5.88147 21.6772 5.23536 21.5096 4.8056C21.2879 4.23616 21.0246 3.82958 20.5972 3.4028C20.1698 2.97602 19.7638 2.71091 19.1944 2.49039C18.7635 2.32395 18.1185 2.12483 16.9291 2.07073C15.6422 2.01308 15.2571 2 11.9997 2C8.74354 2 8.35718 2.01189 7.07088 2.07073C5.88147 2.12483 5.23536 2.32276 4.8056 2.49039C4.23556 2.71091 3.82958 2.97602 3.4028 3.4028C2.97661 3.83077 2.7121 4.23675 2.49039 4.80619C2.32395 5.23714 2.12483 5.88207 2.07073 7.07148C2.01308 8.35837 2 8.74354 2 12.0009C2 15.2582 2.01189 15.644 2.07133 16.9297C2.12542 18.1191 2.32336 18.7652 2.49098 19.195C2.7115 19.7644 2.97602 20.1704 3.40339 20.5972C3.83077 21.024 4.23675 21.2879 4.80619 21.5096ZM12.0207 9.56683C10.6529 9.56683 9.54442 10.6759 9.54442 12.0437C9.54442 13.4115 10.6529 14.5206 12.0207 14.5206C13.3885 14.5206 14.4976 13.4115 14.4976 12.0437C14.4976 10.6759 13.3885 9.56683 12.0207 9.56683ZM12.0207 15.859C9.91355 15.859 8.20546 14.1509 8.20546 12.0437H8.20552C8.20552 9.93643 9.91355 8.22846 12.0207 8.22846C14.1279 8.22846 15.836 9.93655 15.836 12.0437C15.836 14.1509 14.1279 15.859 12.0207 15.859ZM15.2455 8.5726C15.1476 8.42593 15.0954 8.25353 15.0955 8.07718C15.0957 7.84081 15.1897 7.61418 15.3569 7.44707C15.524 7.27996 15.7507 7.18604 15.9871 7.18593H15.9874C16.1638 7.186 16.3361 7.23836 16.4827 7.33639C16.6293 7.43442 16.7435 7.57372 16.811 7.73667C16.8784 7.89961 16.896 8.07889 16.8615 8.25183C16.827 8.42478 16.742 8.58361 16.6173 8.70826C16.4925 8.8329 16.3336 8.91775 16.1607 8.95209C15.9877 8.98642 15.8084 8.96869 15.6455 8.90114C15.4827 8.83359 15.3434 8.71926 15.2455 8.5726ZM7.63917 17.8361C7.90083 17.938 8.29456 18.0587 9.01897 18.0917V18.0918C9.80192 18.1278 10.0365 18.135 12.0207 18.135C14.0049 18.135 14.2402 18.1278 15.0234 18.0918C15.7478 18.0589 16.1416 17.9382 16.4032 17.8362C16.7501 17.7012 16.9979 17.5401 17.2578 17.2804C17.5177 17.0208 17.6785 16.7733 17.8136 16.4264C17.9149 16.1647 18.0362 15.771 18.0692 15.0466C18.1052 14.2628 18.1124 14.0281 18.1124 12.044C18.1124 10.0598 18.1052 9.82516 18.0692 9.04131C18.0362 8.31691 17.9156 7.92305 17.8136 7.66152C17.6785 7.31462 17.518 7.06675 17.2578 6.80688C16.9976 6.547 16.7501 6.38556 16.4032 6.25111C16.1409 6.15006 15.7478 6.0285 15.0234 5.99551C14.2395 5.95985 14.004 5.95218 12.0207 5.95218C10.0374 5.95218 9.80216 5.95937 9.01897 5.99539C8.29456 6.02832 7.90071 6.14899 7.63917 6.25099C7.29168 6.38544 7.04441 6.54653 6.78453 6.80676C6.52466 7.06699 6.36381 7.3145 6.22876 7.6614C6.12771 7.92371 6.00616 8.31679 5.97317 9.04119C5.93774 9.82504 5.92995 10.0596 5.92995 12.0438C5.92995 14.028 5.93715 14.2633 5.97317 15.0465C6.0061 15.7709 6.12676 16.1647 6.22876 16.4263C6.36322 16.7732 6.5243 17.0204 6.78453 17.2803C7.04476 17.5402 7.29227 17.701 7.63917 17.8361ZM7.15396 5.00375C7.62597 4.82007 8.16647 4.69465 8.95745 4.65863H8.95774C9.75038 4.62202 10.0041 4.61364 12.0216 4.61364C14.0391 4.61364 14.2922 4.62243 15.0846 4.65863C15.875 4.69406 16.4152 4.82007 16.8881 5.00375C17.376 5.19342 17.7908 5.44723 18.2037 5.86076C18.6166 6.27429 18.8705 6.68841 19.0607 7.17696C19.2444 7.64897 19.3698 8.18941 19.4058 8.98044C19.4418 9.77267 19.4502 10.0259 19.4502 12.0437C19.4502 14.0615 19.4418 14.3142 19.4058 15.107C19.3704 15.898 19.2444 16.4382 19.0607 16.9105C18.8705 17.399 18.6172 17.8138 18.2037 18.2267C17.7902 18.6395 17.376 18.8935 16.8875 19.0837C16.4152 19.2674 15.875 19.3928 15.084 19.4288C14.2918 19.4654 14.0385 19.4738 12.0207 19.4738C10.0029 19.4738 9.75009 19.4648 8.95745 19.4288C8.16647 19.3928 7.62687 19.2674 7.15396 19.0837C6.66482 18.8935 6.25123 18.6394 5.83776 18.2267C5.42429 17.814 5.17042 17.399 4.98075 16.9105C4.79707 16.4382 4.67165 15.898 4.63563 15.107C4.59902 14.3148 4.59064 14.0615 4.59064 12.0437C4.59064 10.0259 4.59902 9.77267 4.63563 8.98044C4.67165 8.18947 4.79707 7.64927 4.98075 7.17696C5.17042 6.68782 5.42423 6.27364 5.83776 5.86076C6.25129 5.44789 6.66541 5.19342 7.15396 5.00375Z" fill="#FBFCFF"></path></g></svg>