<svg width="20" xmlns='http://www.w3.org/2000/svg'  height="20" viewBox="0 0 24 24" fill="none" class="c-Globe06"><path d="M11.9598 22.9811C9.74864 22.9777 7.58981 22.308 5.76494 21.0593C3.94008 19.8106 2.53389 18.0409 1.72983 15.9811V15.9111C0.720665 13.2801 0.759704 10.3621 1.83889 7.75903C2.91808 5.15596 4.95511 3.06631 7.52983 1.92111H7.61983C9.612 1.06018 11.8143 0.807792 13.9496 1.1957C16.0849 1.58361 18.0578 2.59449 19.6198 4.10111L19.7698 4.25111C20.793 5.2721 21.6049 6.48472 22.1591 7.81966C22.7133 9.1546 22.999 10.5857 22.9998 12.0311C22.9998 12.2111 22.9998 12.4011 22.9998 12.5811C22.9998 12.8463 22.8945 13.1007 22.7069 13.2882C22.5194 13.4757 22.265 13.5811 21.9998 13.5811C20.308 13.5222 18.6424 13.1457 17.0898 12.4711C16.3862 12.0766 15.7986 11.5039 15.3861 10.8106C14.9737 10.1173 14.7508 9.32776 14.7398 8.52111C14.7398 7.45111 15.2198 6.00111 17.2098 4.67111C16.1147 3.88871 14.8591 3.35986 13.5342 3.1229C12.2093 2.88594 10.8483 2.94681 9.54983 3.30111L11.9798 6.77111C12.1467 7.00554 12.2421 7.28327 12.2545 7.57075C12.2669 7.85823 12.1958 8.14315 12.0498 8.39111L10.2298 11.5111V14.6711C10.2296 14.8921 10.1811 15.1104 10.0878 15.3107C9.99457 15.511 9.85875 15.6886 9.68983 15.8311C9.5182 15.9703 9.31863 16.0709 9.10467 16.1261C8.89071 16.1813 8.66737 16.1898 8.44983 16.1511L4.84983 15.4811L3.84983 16.0411C4.59833 17.522 5.74165 18.7671 7.15345 19.6388C8.56524 20.5106 10.1906 20.9752 11.8498 20.9811H12.2998C12.565 20.9692 12.8241 21.0631 13.0201 21.2422C13.2161 21.4213 13.3329 21.6709 13.3448 21.9361C13.3568 22.2013 13.2629 22.4604 13.0838 22.6564C12.9047 22.8524 12.655 22.9692 12.3898 22.9811H11.9598ZM7.64983 4.08111C6.23062 4.8553 5.04614 5.99747 4.22087 7.38759C3.39559 8.77771 2.95999 10.3645 2.95983 11.9811C2.96 12.7089 3.04729 13.4341 3.21983 14.1411L4.04983 13.6511C4.35359 13.4808 4.70686 13.4208 5.04983 13.4811L8.21983 14.0711V11.3911C8.2195 11.1202 8.29204 10.8543 8.42983 10.6211L10.1598 7.62111L7.64983 4.08111ZM18.7398 6.08111C17.7398 6.66111 16.7398 7.49111 16.7398 8.53111C16.7665 8.93807 16.8846 9.33377 17.0855 9.68872C17.2863 10.0437 17.5647 10.3487 17.8998 10.5811C18.8491 11.0126 19.8624 11.2862 20.8998 11.3911C20.7829 9.43183 20.0238 7.56563 18.7398 6.08111ZM16.7098 22.9211C16.5089 22.9177 16.3137 22.8539 16.1496 22.738C15.9855 22.622 15.8601 22.4593 15.7898 22.2711L12.6098 13.9211C12.5414 13.7409 12.5264 13.5448 12.5668 13.3563C12.6072 13.1679 12.7012 12.9951 12.8375 12.8588C12.9738 12.7225 13.1466 12.6285 13.3351 12.5881C13.5235 12.5477 13.7196 12.5626 13.8998 12.6311L22.2498 15.8011C22.4363 15.8748 22.5964 16.0029 22.7092 16.1688C22.822 16.3346 22.8823 16.5305 22.8823 16.7311C22.8823 16.9317 22.822 17.1276 22.7092 17.2934C22.5964 17.4593 22.4363 17.5874 22.2498 17.6611L18.9398 18.9911L17.6198 22.2911C17.547 22.474 17.4218 22.6314 17.2599 22.7435C17.098 22.8556 16.9067 22.9173 16.7098 22.9211ZM15.2698 15.2911L16.7398 19.1611L17.2598 17.8411C17.3113 17.7164 17.3874 17.6034 17.4836 17.5089C17.5798 17.4143 17.6942 17.3403 17.8198 17.2911L19.1398 16.7611L15.2698 15.2911Z" fill="#946800"></path></svg>