<svg width="56" height="56" fill="none" xmlns='http://www.w3.org/2000/svg' viewBox="0 0 20 20"><path fill="#EBB400" fill-rule="evenodd" d="M5.134 1.667h9.731c.44 0 .819 0 1.13.025.33.027.658.087.973.247a2.5 2.5 0 011.093 1.093c.16.315.22.643.247.972.025.312.025.691.025 1.13V5.7c0 .44 0 .818-.025 1.13-.027.33-.087.657-.247.973a2.5 2.5 0 01-1.093 1.092c-.315.16-.643.22-.972.247-.313.026-.691.026-1.13.026H5.133c-.439 0-.818 0-1.13-.026-.33-.027-.657-.086-.972-.247a2.5 2.5 0 01-1.093-1.092c-.16-.316-.22-.643-.247-.973-.026-.312-.026-.69-.025-1.13v-.564c0-.44 0-.819.025-1.13.027-.33.086-.658.247-.973a2.5 2.5 0 011.093-1.093c.315-.16.643-.22.972-.247.312-.025.691-.025 1.13-.025zM4.14 3.353c-.227.019-.31.05-.352.071a.833.833 0 00-.364.364c-.021.042-.052.126-.07.352-.02.236-.02.546-.02 1.027v.5c0 .48 0 .79.02 1.027.018.226.049.31.07.351.08.157.207.284.364.364.041.021.125.053.352.071.236.02.546.02 1.027.02h9.666c.48 0 .79 0 1.027-.02.226-.018.31-.05.352-.07a.833.833 0 00.364-.365c.02-.041.052-.125.07-.351.02-.237.02-.547.02-1.027v-.5c0-.48 0-.79-.02-1.027-.018-.226-.05-.31-.07-.352a.833.833 0 00-.364-.364c-.042-.02-.126-.052-.352-.07-.236-.02-.546-.02-1.027-.02H5.167c-.481 0-.791 0-1.027.02zm.994 7.48h9.731c.44 0 .819 0 1.13.026.33.027.658.086.973.247a2.5 2.5 0 011.093 1.092c.16.316.22.643.247.973.025.312.025.691.025 1.13v.565c0 .439 0 .818-.025 1.13-.027.33-.087.657-.247.972a2.5 2.5 0 01-1.093 1.093c-.315.16-.643.22-.972.247-.312.025-.691.025-1.13.025H5.133c-.439 0-.818 0-1.13-.025-.33-.027-.657-.086-.972-.247a2.5 2.5 0 01-1.093-1.093c-.16-.315-.22-.643-.247-.972-.026-.312-.026-.691-.025-1.13V14.3c0-.439 0-.818.025-1.13.027-.33.086-.657.247-.973a2.5 2.5 0 011.093-1.092c.315-.16.643-.22.972-.247.312-.026.691-.026 1.13-.026zM4.14 12.52c-.227.019-.31.05-.352.07a.833.833 0 00-.364.365c-.021.041-.052.125-.07.352-.02.236-.02.546-.02 1.026v.5c0 .48 0 .791.02 1.027.018.227.049.31.07.352.08.157.207.284.364.364.041.02.125.052.352.07.236.02.546.02 1.027.02h9.666c.48 0 .79 0 1.027-.02.226-.018.31-.05.352-.07a.833.833 0 00.364-.364c.02-.041.052-.125.07-.352.02-.236.02-.546.02-1.027v-.5c0-.48 0-.79-.02-1.026-.018-.227-.05-.31-.07-.352a.833.833 0 00-.364-.364c-.042-.021-.126-.052-.352-.071-.236-.02-.546-.02-1.027-.02H5.167c-.481 0-.791 0-1.027.02z" clip-rule="evenodd"></path></svg>