<svg width="56" height="56" xmlns='http://www.w3.org/2000/svg' viewBox="0 0 24 24" fill="none" class="c-CalendarMoney"><path fill-rule="evenodd" clip-rule="evenodd" d="M9 2C9 1.44772 8.55229 1 8 1C7.44772 1 7 1.44772 7 2V3.00163C6.52454 3.00489 6.10898 3.01471 5.74818 3.04419C5.18608 3.09012 4.66937 3.18868 4.18404 3.43597C3.43139 3.81947 2.81947 4.43139 2.43598 5.18404C2.18868 5.66937 2.09012 6.18608 2.04419 6.74817C2.01608 7.09227 2.00585 7.48616 2.00212 7.93432C2.00072 7.95603 2 7.97793 2 8C2 8.01724 2.00044 8.03438 2.0013 8.0514C1.99999 8.27399 2 8.50952 2 8.75851V17.2413C1.99999 18.0463 1.99998 18.7106 2.04419 19.2518C2.09012 19.8139 2.18868 20.3306 2.43598 20.816C2.81947 21.5686 3.43139 22.1805 4.18404 22.564C4.66937 22.8113 5.18608 22.9099 5.74818 22.9558C6.28936 23 6.95372 23 7.75868 23H16.2413C17.0463 23 17.7106 23 18.2518 22.9558C18.8139 22.9099 19.3306 22.8113 19.816 22.564C20.5686 22.1805 21.1805 21.5686 21.564 20.816C21.8113 20.3306 21.9099 19.8139 21.9558 19.2518C22 18.7106 22 18.0463 22 17.2413V8.75868C22 8.50967 22 8.27401 21.9987 8.0514C21.9996 8.03437 22 8.01724 22 8C22 7.97793 21.9993 7.95603 21.9979 7.93431C21.9942 7.48615 21.9839 7.09227 21.9558 6.74817C21.9099 6.18608 21.8113 5.66937 21.564 5.18404C21.1805 4.43139 20.5686 3.81947 19.816 3.43597C19.3306 3.18868 18.8139 3.09012 18.2518 3.04419C17.891 3.01471 17.4755 3.00489 17 3.00163V2C17 1.44772 16.5523 1 16 1C15.4477 1 15 1.44772 15 2V3H9V2ZM5.91104 5.03755C6.20463 5.01356 6.55447 5.00489 7 5.00176C7.00095 5.55324 7.4483 6 8 6C8.55229 6 9 5.55228 9 5H15C15 5.55228 15.4477 6 16 6C16.5517 6 16.999 5.55324 17 5.00176C17.4455 5.00489 17.7954 5.01356 18.089 5.03755C18.5274 5.07337 18.7516 5.1383 18.908 5.21799C19.2843 5.40973 19.5903 5.7157 19.782 6.09202C19.8617 6.24842 19.9266 6.47262 19.9624 6.91104C19.9648 6.94013 19.9671 6.96977 19.9691 7H4.03086C4.03295 6.96977 4.03518 6.94013 4.03755 6.91104C4.07337 6.47262 4.1383 6.24842 4.21799 6.09202C4.40973 5.71569 4.7157 5.40973 5.09202 5.21799C5.24842 5.1383 5.47262 5.07337 5.91104 5.03755ZM4 9H20V17.2C20 18.0566 19.9992 18.6389 19.9624 19.089C19.9266 19.5274 19.8617 19.7516 19.782 19.908C19.5903 20.2843 19.2843 20.5903 18.908 20.782C18.7516 20.8617 18.5274 20.9266 18.089 20.9624C17.6389 20.9992 17.0566 21 16.2 21H7.8C6.94342 21 6.36113 20.9992 5.91104 20.9624C5.47262 20.9266 5.24842 20.8617 5.09202 20.782C4.7157 20.5903 4.40974 20.2843 4.21799 19.908C4.1383 19.7516 4.07337 19.5274 4.03755 19.089C4.00078 18.6389 4 18.0566 4 17.2V9ZM12 10C12.5523 10 13 10.4477 13 11H14C14.5523 11 15 11.4477 15 12C15 12.5523 14.5523 13 14 13H11.5C11.2239 13 11 13.2239 11 13.5C11 13.7761 11.2239 14 11.5 14H12.5C13.8807 14 15 15.1193 15 16.5C15 17.7095 14.1411 18.7184 13 18.95V19C13 19.5523 12.5523 20 12 20C11.4477 20 11 19.5523 11 19H10C9.4477 19 9 18.5523 9 18C9 17.4477 9.4477 17 10 17H12.5C12.7761 17 13 16.7761 13 16.5C13 16.2239 12.7761 16 12.5 16H11.5C10.1193 16 9 14.8807 9 13.5C9 12.2905 9.8589 11.2816 11 11.05V11C11 10.4477 11.4477 10 12 10Z" fill="#EBB400"></path></svg>